<svg xmlns="http://www.w3.org/2000/svg" width="1200" height="630" viewBox="0 0 1200 630">
<defs>
<linearGradient id="bg" x1="0" y1="0" x2="1" y2="1">
<stop offset="0" stop-color="#020c06"/>
<stop offset="1" stop-color="#050f08"/>
</linearGradient>
<filter id="glow" x="-50%" y="-50%" width="200%" height="200%">
<feGaussianBlur stdDeviation="12" result="b"/>
<feMerge>
<feMergeNode in="b"/>
<feMergeNode in="SourceGraphic"/>
<feMergeNode in="b"/>
</feMerge>
</filter>
</defs>
<rect width="1200" height="630" fill="url(#bg)"/>
<g opacity="0.35">
<path d="M0 40H1200M0 80H1200M0 120H1200M0 160H1200M0 200H1200M0 240H1200M0 280H1200M0 320H1200M0 360H1200M0 400H1200M0 440H1200M0 480H1200M0 520H1200M0 560H1200" stroke="#00ff9f" stroke-width="1"/>
<path d="M40 0V630M80 0V630M120 0V630M160 0V630M200 0V630M240 0V630M280 0V630M320 0V630M360 0V630M400 0V630M440 0V630M480 0V630M520 0V630M560 0V630M600 0V630M640 0V630M680 0V630M720 0V630M760 0V630M800 0V630M840 0V630M880 0V630M920 0V630M960 0V630M1000 0V630M1040 0V630M1080 0V630M1120 0V630" stroke="#00ff9f" stroke-width="1"/>
</g>
<circle cx="600" cy="315" r="260" fill="#00ff9f" opacity="0.06" filter="url(#glow)"/>
<text x="600" y="280" text-anchor="middle" font-family="Orbitron, Arial, sans-serif" font-size="96" fill="#00ff9f" filter="url(#glow)">DENKAAI</text>
<text x="600" y="360" text-anchor="middle" font-family="Share Tech Mono, monospace" font-size="28" fill="#c8ffd4">Cyber Intelligence Analyst</text>
<text x="600" y="408" text-anchor="middle" font-family="Share Tech Mono, monospace" font-size="22" fill="#5a8c6a">Digital Forensics • OSINT • Incident Response • Network Analysis</text>
<rect x="380" y="440" width="440" height="56" rx="8" fill="none" stroke="#00ff9f"/>
<text x="600" y="477" text-anchor="middle" font-family="Share Tech Mono, monospace" font-size="20" fill="#00ff9f">denkaai.github.io/Denkaai-portfolio</text>
</svg>
